<svg width="14" height="14" viewBox="0 0 14 14" fill="none" xmlns="http://www.w3.org/2000/svg">
<g id="phone">
<path id="Icon (Stroke)" fill-rule="evenodd" clip-rule="evenodd" d="M4.02031 2.15114C3.8595 2.0698 3.66959 2.0698 3.50878 2.15114C3.4495 2.18112 3.37411 2.24585 3.03075 2.58921L2.9388 2.68116C2.61149 3.00846 2.52531 3.10126 2.45625 3.22419C2.37604 3.36698 2.3084 3.62708 2.30889 3.79084C2.30932 3.93649 2.3305 4.02364 2.42699 4.36358C2.902 6.03716 3.79809 7.61653 5.11688 8.93532C6.43568 10.2541 8.01504 11.1502 9.68863 11.6252C10.0286 11.7217 10.1157 11.7429 10.2614 11.7433C10.4251 11.7438 10.6852 11.6762 10.828 11.596C10.9509 11.5269 11.0437 11.4407 11.371 11.1134L11.463 11.0215C11.8064 10.6781 11.8711 10.6027 11.9011 10.5434C11.9824 10.3826 11.9824 10.1927 11.9011 10.0319C11.8711 9.97262 11.8064 9.89723 11.463 9.55387L11.3493 9.4402C11.1237 9.2146 11.0746 9.17013 11.0381 9.14639C10.8503 9.02427 10.6081 9.02427 10.4203 9.14639C10.3838 9.17013 10.3347 9.2146 10.1091 9.4402C10.1046 9.44465 10.1001 9.44924 10.0954 9.45395C10.0432 9.50636 9.97592 9.57385 9.89515 9.6317L9.54583 9.14387L9.89514 9.6317C9.60691 9.83809 9.21541 9.90485 8.87506 9.80564C8.78012 9.77796 8.70194 9.74026 8.64213 9.71143C8.63736 9.70912 8.6327 9.70688 8.62816 9.7047C7.72234 9.26979 6.87397 8.67715 6.12451 7.9277C5.37505 7.17824 4.78241 6.32987 4.34751 5.42405C4.34533 5.41951 4.34308 5.41485 4.34078 5.41008C4.31194 5.35027 4.27425 5.27209 4.24657 5.17715L4.8226 5.00923L4.24657 5.17715C4.14736 4.8368 4.21412 4.4453 4.42051 4.15706L4.42051 4.15706C4.47835 4.07628 4.54585 4.00904 4.59826 3.95683C4.60297 3.95214 4.60756 3.94756 4.61201 3.94312C4.83761 3.71752 4.88208 3.66839 4.90582 3.63188L4.90582 3.63188C5.02793 3.44406 5.02793 3.20193 4.90582 3.01411C4.88208 2.9776 4.83761 2.92848 4.61201 2.70288L4.49833 2.58921C4.15498 2.24585 4.07958 2.18112 4.02031 2.15114ZM5.40311 4.84961C5.40729 4.84526 5.41251 4.83991 5.41915 4.83319L5.46054 4.79164C5.47307 4.77911 5.48549 4.76671 5.4978 4.75442C5.6645 4.58802 5.80981 4.44297 5.91187 4.28599C6.29258 3.70044 6.29258 2.94556 5.91187 2.36C5.80981 2.20303 5.6645 2.05798 5.4978 1.89157C5.48549 1.87929 5.47307 1.86688 5.46054 1.85435L5.34686 1.74068C5.32785 1.72166 5.30903 1.70279 5.29038 1.6841C5.03777 1.4308 4.81678 1.20923 4.56192 1.08032C4.06058 0.826742 3.46851 0.826742 2.96716 1.08032L3.20978 1.55999L2.96716 1.08032C2.71231 1.20923 2.49132 1.4308 2.23871 1.6841C2.22006 1.70279 2.20124 1.72166 2.18222 1.74068L2.09027 1.83263C2.07673 1.84617 2.06334 1.85955 2.0501 1.87278C1.77905 2.14354 1.56915 2.35321 1.41002 2.63648L1.41002 2.63648C1.2284 2.95979 1.10779 3.42359 1.10889 3.79442C1.10986 4.11868 1.17715 4.35545 1.26309 4.65779C1.26623 4.66884 1.2694 4.67999 1.27259 4.69123C1.80204 6.55661 2.80117 8.31667 4.26836 9.78385C5.73554 11.251 7.4956 12.2502 9.36097 12.7796C9.37222 12.7828 9.38336 12.786 9.39442 12.7891C9.69675 12.8751 9.93352 12.9423 10.2578 12.9433C10.6286 12.9444 11.0924 12.8238 11.4157 12.6422C11.699 12.4831 11.9087 12.2732 12.1794 12.0021C12.1927 11.9889 12.206 11.9755 12.2196 11.9619L12.3115 11.87C12.3305 11.851 12.3494 11.8322 12.3681 11.8135C12.6214 11.5609 12.843 11.3399 12.9719 11.085C13.2255 10.5837 13.2255 9.99163 12.9719 9.49028C12.843 9.23543 12.6214 9.01444 12.3681 8.76183C12.3494 8.74318 12.3305 8.72436 12.3115 8.70535L12.1979 8.59167C12.1853 8.57914 12.1729 8.56671 12.1606 8.5544C11.9942 8.3877 11.8492 8.24239 11.6922 8.14034C11.1066 7.75962 10.3518 7.75962 9.76622 8.14034C9.60924 8.2424 9.46419 8.3877 9.29778 8.55441C9.2855 8.56671 9.2731 8.57914 9.26056 8.59167L9.21902 8.63306C9.2123 8.63969 9.20695 8.64491 9.2026 8.64909C9.19955 8.64769 9.19599 8.64603 9.19182 8.64407L9.14754 8.62292L8.88785 9.16381L9.14754 8.62292C8.36213 8.24583 7.62542 7.73155 6.97304 7.07917C6.32066 6.42678 5.80638 5.69007 5.42928 4.90466L5.40814 4.86039C5.40618 4.85622 5.40452 4.85266 5.40311 4.84961Z" fill="#666666"/>
</g>
</svg>
