<svg width="14" height="14" viewBox="0 0 14 14" fill="none" xmlns="http://www.w3.org/2000/svg">
<g id="pin on map">
<path id="Vector (Stroke)" fill-rule="evenodd" clip-rule="evenodd" d="M7.00198 1.7998C5.87306 1.7998 4.77698 2.89955 4.77698 4.4967C4.77698 5.48819 5.38633 6.61137 6.11184 7.56704C6.42931 7.98522 6.74817 8.34445 7.00198 8.6121C7.25578 8.34445 7.57464 7.98522 7.89211 7.56704C8.61762 6.61137 9.22698 5.48819 9.22698 4.4967C9.22698 2.89955 8.13089 1.7998 7.00198 1.7998ZM7.00198 9.66704C6.50132 10.2255 6.50118 10.2253 6.50103 10.2252L6.49975 10.2241L6.49711 10.2217L6.48863 10.214L6.4594 10.1872C6.43466 10.1643 6.3996 10.1315 6.35569 10.0895C6.26793 10.0055 6.14452 9.88446 5.99731 9.73184C5.70374 9.42747 5.31127 8.99323 4.91711 8.47403C4.15512 7.4703 3.27698 6.00831 3.27698 4.4967C3.27698 2.28585 4.84509 0.299805 7.00198 0.299805C9.15886 0.299805 10.727 2.28585 10.727 4.4967C10.727 6.00831 9.84883 7.4703 9.08684 8.47403C8.69268 8.99323 8.30021 9.42747 8.00664 9.73184C7.85944 9.88446 7.73602 10.0055 7.64826 10.0895C7.60436 10.1315 7.56929 10.1643 7.54455 10.1872L7.51533 10.214L7.50685 10.2217L7.5042 10.2241L7.50328 10.2249C7.50313 10.225 7.50264 10.2255 7.00198 9.66704ZM7.00198 9.66704L7.50328 10.2249L7.00198 10.6743L6.50103 10.2252L7.00198 9.66704ZM7.23195 4.81315C7.26974 4.78983 7.30099 4.7623 7.32488 4.73429C7.38418 4.66476 7.40175 4.59267 7.40175 4.53773C7.40175 4.4828 7.38418 4.4107 7.32488 4.34118C7.30099 4.31317 7.26974 4.28563 7.23195 4.26231C7.17103 4.22472 7.09314 4.19808 7.00175 4.19808C6.91035 4.19808 6.83246 4.22472 6.77154 4.26231C6.73375 4.28563 6.7025 4.31317 6.67861 4.34118C6.61931 4.4107 6.60175 4.4828 6.60175 4.53773C6.60175 4.59267 6.61931 4.66476 6.67861 4.73429C6.7025 4.7623 6.73375 4.78983 6.77154 4.81315C6.83246 4.85075 6.91035 4.87739 7.00175 4.87739C7.09314 4.87739 7.17103 4.85075 7.23195 4.81315ZM6.18363 3.76087C6.37732 3.53378 6.66802 3.37739 7.00175 3.37739C7.33547 3.37739 7.62617 3.53378 7.81986 3.76087C8.01043 3.9843 8.10175 4.26514 8.10175 4.53773C8.10175 4.81033 8.01043 5.09117 7.81986 5.3146C7.62617 5.54169 7.33547 5.69808 7.00175 5.69808C6.66802 5.69808 6.37732 5.54169 6.18363 5.3146C5.99306 5.09117 5.90175 4.81033 5.90175 4.53773C5.90175 4.26514 5.99306 3.9843 6.18363 3.76087ZM3.4831 7.80986L2.81791 12.0972C2.8149 12.1166 2.80906 12.1527 2.80135 12.1998H11.2024C11.1948 12.1524 11.189 12.1162 11.186 12.0972L10.5209 7.80986L12.0031 7.57989L12.6683 11.8672C12.6683 11.8672 12.6683 11.8672 12.6683 11.8672C12.677 11.9232 12.7155 12.1616 12.7526 12.3905L12.8236 12.829L12.965 13.6998H1.03076L1.17675 12.8262L1.24992 12.3873C1.28819 12.1572 1.32727 11.9212 1.33564 11.8672C1.33564 11.8672 1.33565 11.8672 1.33564 11.8672L2.00083 7.57989L3.4831 7.80986Z" fill="#666666"/>
</g>
</svg>
