<svg width="14" height="14" viewBox="0 0 14 14" fill="none" xmlns="http://www.w3.org/2000/svg">
<g id="globe" clip-path="url(#clip0_279_6685)">
<path id="Vector" d="M7.0002 13.3002C10.4796 13.3002 13.3002 10.4796 13.3002 7.0002C13.3002 3.5208 10.4796 0.700195 7.0002 0.700195M7.0002 13.3002C3.5208 13.3002 0.700195 10.4796 0.700195 7.0002C0.700195 3.5208 3.5208 0.700195 7.0002 0.700195M7.0002 13.3002C8.07997 13.3002 9.82455 10.9105 9.82455 7.0002C9.82455 3.08985 8.07997 0.700195 7.0002 0.700195M7.0002 13.3002C5.92042 13.3002 4.17627 10.9105 4.17627 7.0002C4.17627 3.08985 5.92042 0.700195 7.0002 0.700195M0.916975 7.0002H13.0825" stroke="#666666" stroke-width="1.5" stroke-linecap="square"/>
</g>
<defs>
<clipPath id="clip0_279_6685">
<rect width="14" height="14" fill="white"/>
</clipPath>
</defs>
</svg>
